Patient4_TMGait_0pt6_01_right_07_GRF.mot
version=1
nRows=26
nColumns=19
inDegrees=no
endheader
time	F1x	F1y	F1z	M1x	M1y	M1z	F2x	F2y	F2z	M2x	M2y	M2z	EC1x	EC1y	EC1z	EC2x	EC2y	EC2z
7.93	1.5373	729.6813	54.4413	-263.8047	-41.8868	625.71	-7.3245	-11.2898	-1.3761	-1.7989	4.8127	-15.284	-0.0592	0.0182	-0.0073	-0.0462	0.0165	0.9585
7.9419	2.1301	728.0148	54.6506	-262.4192	-42.1269	619.2379	-5.0266	-6.4205	-1.1835	-0.69807	3.5874	-9.1147	-0.0592	0.0182	-0.0073	-0.0462	0.0165	0.9585
7.9539	3.2783	726.6176	54.8092	-261.0734	-42.0116	612.7015	-3.0846	-2.3085	-0.92243	0.20876	2.4469	-3.9074	-0.0592	0.0182	-0.0073	-0.0462	0.0165	0.9585
7.9658	4.9922	725.7892	54.876	-259.9438	-41.4795	606.5521	-1.61	0.83338	-0.66285	0.89079	1.5193	0.070289	-0.0592	0.0182	-0.0073	-0.0462	0.0165	0.9585
7.9777	7.2117	725.7264	54.8482	-259.1586	-40.5545	601.052	-0.59458	3.0177	-0.44945	1.3614	0.84667	2.8303	-0.0592	0.0182	-0.0073	-0.0462	0.0165	0.9585
7.9896	9.8763	726.5303	54.7168	-258.7911	-39.2717	596.3109	0.013118	4.3821	-0.30058	1.6556	0.41701	4.5542	-0.0592	0.0182	-0.0073	-0.0462	0.0165	0.9585
8.0016	12.9067	728.2064	54.5056	-258.8584	-37.7044	592.3295	0.30661	5.0924	-0.21748	1.8087	0.18594	5.4558	-0.0592	0.0182	-0.0073	-0.0462	0.0165	0.9585
8.0135	16.2438	730.6498	54.2245	-259.32	-35.9048	589.0037	0.36862	5.2987	-0.19687	1.8449	0.10995	5.7352	-0.0592	0.0182	-0.0073	-0.0462	0.0165	0.9585
8.0254	19.8386	733.6818	53.92	-260.0917	-33.9496	586.1875	0.29056	5.0981	-0.21911	1.7711	0.13279	5.5168	-0.0592	0.0182	-0.0073	-0.0462	0.0165	0.9585
8.0374	23.6445	737.0513	53.634	-261.0538	-31.9011	583.6853	0.13434	4.5406	-0.27619	1.5786	0.22072	4.8853	-0.0592	0.0182	-0.0073	-0.0462	0.0165	0.9585
8.0493	27.6182	740.5147	53.4268	-262.0826	-29.8287	581.3219	-0.035684	3.6247	-0.34462	1.2443	0.33009	3.87	-0.0592	0.0182	-0.0073	-0.0462	0.0165	0.9585
8.0612	31.7049	743.8826	53.353	-263.0711	-27.7974	578.9809	-0.18271	2.3212	-0.41183	0.74026	0.43456	2.4685	-0.0592	0.0182	-0.0073	-0.0462	0.0165	0.9585
8.0731	35.8354	747.0246	53.4742	-263.9392	-25.8788	576.5934	-0.26844	0.60705	-0.45988	0.047362	0.50152	0.66958	-0.0592	0.0182	-0.0073	-0.0462	0.0165	0.9585
8.0851	39.9182	749.9091	53.8445	-264.6501	-24.1466	574.1773	-0.26806	-1.4977	-0.4666	-0.82818	0.49763	-1.4989	-0.0592	0.0182	-0.0073	-0.0462	0.0165	0.9585
8.097	43.8593	752.5627	54.5022	-265.2001	-22.6677	571.7801	-0.15287	-3.8708	-0.4136	-1.829	0.38836	-3.908	-0.0592	0.0182	-0.0073	-0.0462	0.0165	0.9585
8.1089	47.5582	755.0828	55.4492	-265.6188	-21.4847	569.5009	0.11529	-6.1787	-0.26717	-2.808	0.12129	-6.2144	-0.0592	0.0182	-0.0073	-0.0462	0.0165	0.9585
8.1209	50.9396	757.5248	56.6589	-265.9303	-20.6162	567.4108	0.55803	-7.8197	0.0027647	-3.5024	-0.34593	-7.8105	-0.0592	0.0182	-0.0073	-0.0462	0.0165	0.9585
8.1328	53.9521	759.86	58.0742	-266.1312	-20.05	565.5231	1.1977	-7.8122	0.44226	-3.4911	-1.0604	-7.7121	-0.0592	0.0182	-0.0073	-0.0462	0.0165	0.9585
8.1447	56.5691	761.8792	59.6199	-266.1623	-19.7551	563.6849	2.0202	-4.7575	1.0734	-2.1755	-2.0269	-4.5235	-0.0592	0.0182	-0.0073	-0.0462	0.0165	0.9585
8.1566	58.8037	763.164	61.1938	-265.8988	-19.6674	561.5842	2.9608	3.1471	1.9054	1.2171	-3.2158	3.5686	-0.0592	0.0182	-0.0073	-0.0462	0.0165	0.9585
8.1686	60.7296	763.0568	62.658	-265.1409	-19.6732	558.7094	3.8777	18.0017	2.8796	7.5835	-4.4958	18.6862	-0.0592	0.0182	-0.0073	-0.0462	0.0165	0.9585
8.1805	62.4362	760.6552	63.8241	-263.6105	-19.6133	554.3752	4.4921	41.8988	3.8763	17.8122	-5.6121	42.9335	-0.0592	0.0182	-0.0073	-0.0462	0.0165	0.9585
8.1924	64.0313	754.7591	64.4762	-260.9325	-19.3024	547.6802	4.3201	76.4248	4.6708	32.5659	-6.1142	77.8921	-0.0592	0.0182	-0.0073	-0.0462	0.0165	0.9585
8.2044	65.5394	743.9018	64.3645	-256.6368	-18.5595	537.5639	2.5708	121.851	4.9697	51.9404	-5.3666	123.803	-0.0592	0.0182	-0.0073	-0.0462	0.0165	0.9585
8.2163	66.8631	726.4027	63.2242	-250.1766	-17.2417	522.8412	-1.6163	176.0673	4.3919	75.0068	-2.6442	178.5036	-0.0592	0.0182	-0.0073	-0.0462	0.0165	0.9585
8.2282	67.7178	700.6055	60.7945	-241.0036	-15.2793	502.3987	-8.3356	234.1695	2.4723	99.633	2.5028	236.994	-0.0592	0.0182	-0.0073	-0.0462	0.0165	0.9585
